<?xml version="1.0" encoding="us-ascii" standalone="no"?><svg xmlns="http://www.w3.org/2000/svg" xmlns:xlink="http://www.w3.org/1999/xlink" contentStyleType="text/css" height="745.8333px" preserveAspectRatio="none" style="width:929px;height:745px;" version="1.1" viewBox="0 0 929 745" width="929.1667px" zoomAndPan="magnify"><defs><linearGradient id="g1oknbswmfr1zu0" x1="50%" x2="50%" y1="0%" y2="100%"><stop offset="0%" stop-color="#59B6EC"/><stop offset="100%" stop-color="#2FA4E7"/></linearGradient></defs><g><line style="stroke:#BABDBF;stroke-width:1.0416666666666667;stroke-dasharray:5.0,5.0;" x1="36.4583" x2="36.4583" y1="98.9258" y2="648.5352"/><line style="stroke:#BABDBF;stroke-width:1.0416666666666667;stroke-dasharray:5.0,5.0;" x1="171.3542" x2="171.3542" y1="98.9258" y2="648.5352"/><line style="stroke:#BABDBF;stroke-width:1.0416666666666667;stroke-dasharray:5.0,5.0;" x1="360.9375" x2="360.9375" y1="98.9258" y2="648.5352"/><line style="stroke:#BABDBF;stroke-width:1.0416666666666667;stroke-dasharray:5.0,5.0;" x1="585.9375" x2="585.9375" y1="98.9258" y2="648.5352"/><line style="stroke:#BABDBF;stroke-width:1.0416666666666667;stroke-dasharray:5.0,5.0;" x1="804.6875" x2="804.6875" y1="98.9258" y2="648.5352"/><text fill="#343A40" font-family="Verdana" font-size="12.5" lengthAdjust="spacing" textLength="25" x="20.8333" y="90.7694">&#29992;&#25143;</text><ellipse cx="36.4583" cy="19.7917" fill="url(#g1oknbswmfr1zu0)" rx="8.3333" ry="8.3333" style="stroke:#2FA4E7;stroke-width:1.0416666666666667;"/><path d="M36.4583,28.125 L36.4583,56.25 M22.9167,36.4583 L50,36.4583 M36.4583,56.25 L22.9167,71.875 M36.4583,56.25 L50,71.875 " fill="none" style="stroke:#2FA4E7;stroke-width:1.0416666666666667;"/><text fill="#343A40" font-family="Verdana" font-size="12.5" lengthAdjust="spacing" textLength="25" x="20.8333" y="664.3046">&#29992;&#25143;</text><ellipse cx="36.4583" cy="681.8359" fill="url(#g1oknbswmfr1zu0)" rx="8.3333" ry="8.3333" style="stroke:#2FA4E7;stroke-width:1.0416666666666667;"/><path d="M36.4583,690.1693 L36.4583,718.2943 M22.9167,698.5026 L50,698.5026 M36.4583,718.2943 L22.9167,733.9193 M36.4583,718.2943 L50,733.9193 " fill="none" style="stroke:#2FA4E7;stroke-width:1.0416666666666667;"/><rect fill="url(#g1oknbswmfr1zu0)" height="39.5508" rx="4.1667" ry="4.1667" style="stroke:#2FA4E7;stroke-width:1.0416666666666667;" width="78.125" x="132.8125" y="58.3333"/><text fill="#FFFFFF" font-family="Verdana" font-size="12.5" lengthAdjust="spacing" textLength="53.125" x="145.3125" y="82.4361">Web&#24179;&#21488;</text><rect fill="url(#g1oknbswmfr1zu0)" height="39.5508" rx="4.1667" ry="4.1667" style="stroke:#2FA4E7;stroke-width:1.0416666666666667;" width="78.125" x="132.8125" y="647.4935"/><text fill="#FFFFFF" font-family="Verdana" font-size="12.5" lengthAdjust="spacing" textLength="53.125" x="145.3125" y="671.5963">Web&#24179;&#21488;</text><rect fill="url(#g1oknbswmfr1zu0)" height="39.5508" rx="4.1667" ry="4.1667" style="stroke:#2FA4E7;stroke-width:1.0416666666666667;" width="112.5" x="304.6875" y="58.3333"/><text fill="#FFFFFF" font-family="Verdana" font-size="12.5" lengthAdjust="spacing" textLength="87.5" x="317.1875" y="82.4361">&#25968;&#25454;&#39044;&#22788;&#29702;&#27169;&#22359;</text><rect fill="url(#g1oknbswmfr1zu0)" height="39.5508" rx="4.1667" ry="4.1667" style="stroke:#2FA4E7;stroke-width:1.0416666666666667;" width="112.5" x="304.6875" y="647.4935"/><text fill="#FFFFFF" font-family="Verdana" font-size="12.5" lengthAdjust="spacing" textLength="87.5" x="317.1875" y="671.5963">&#25968;&#25454;&#39044;&#22788;&#29702;&#27169;&#22359;</text><rect fill="url(#g1oknbswmfr1zu0)" height="39.5508" rx="4.1667" ry="4.1667" style="stroke:#2FA4E7;stroke-width:1.0416666666666667;" width="150" x="510.9375" y="58.3333"/><text fill="#FFFFFF" font-family="Verdana" font-size="12.5" lengthAdjust="spacing" textLength="125" x="523.4375" y="82.4361">&#26426;&#22120;&#23398;&#20064;&#27169;&#22411;&#35757;&#32451;&#27169;&#22359;</text><rect fill="url(#g1oknbswmfr1zu0)" height="39.5508" rx="4.1667" ry="4.1667" style="stroke:#2FA4E7;stroke-width:1.0416666666666667;" width="150" x="510.9375" y="647.4935"/><text fill="#FFFFFF" font-family="Verdana" font-size="12.5" lengthAdjust="spacing" textLength="125" x="523.4375" y="671.5963">&#26426;&#22120;&#23398;&#20064;&#27169;&#22411;&#35757;&#32451;&#27169;&#22359;</text><rect fill="url(#g1oknbswmfr1zu0)" height="39.5508" rx="4.1667" ry="4.1667" style="stroke:#2FA4E7;stroke-width:1.0416666666666667;" width="100" x="754.6875" y="58.3333"/><text fill="#FFFFFF" font-family="Verdana" font-size="12.5" lengthAdjust="spacing" textLength="75" x="767.1875" y="82.4361">&#25925;&#38556;&#35786;&#26029;&#27169;&#22359;</text><rect fill="url(#g1oknbswmfr1zu0)" height="39.5508" rx="4.1667" ry="4.1667" style="stroke:#2FA4E7;stroke-width:1.0416666666666667;" width="100" x="754.6875" y="647.4935"/><text fill="#FFFFFF" font-family="Verdana" font-size="12.5" lengthAdjust="spacing" textLength="75" x="767.1875" y="671.5963">&#25925;&#38556;&#35786;&#26029;&#27169;&#22359;</text><polygon fill="#2FA4E7" points="159.375,136.3932,169.7917,140.5599,159.375,144.7266,163.5417,140.5599" style="stroke:#2FA4E7;stroke-width:1.0416666666666667;"/><line style="stroke:#2FA4E7;stroke-width:3.125;" x1="36.4583" x2="165.625" y1="140.5599" y2="140.5599"/><text fill="#343A40" font-family="Verdana" font-size="12.5" lengthAdjust="spacing" textLength="100" x="48.9583" y="130.3202">&#19978;&#20256;&#21407;&#22987;&#25925;&#38556;&#25968;&#25454;</text><polygon fill="#2FA4E7" points="348.4375,175.944,358.8542,180.1107,348.4375,184.2773,352.6042,180.1107" style="stroke:#2FA4E7;stroke-width:1.0416666666666667;"/><line style="stroke:#2FA4E7;stroke-width:3.125;" x1="171.875" x2="354.6875" y1="180.1107" y2="180.1107"/><text fill="#343A40" font-family="Verdana" font-size="12.5" lengthAdjust="spacing" textLength="75" x="184.375" y="169.871">&#25509;&#25910;&#21407;&#22987;&#25968;&#25454;</text><line style="stroke:#2FA4E7;stroke-width:3.125;" x1="360.9375" x2="404.6875" y1="219.6615" y2="219.6615"/><line style="stroke:#2FA4E7;stroke-width:3.125;" x1="404.6875" x2="404.6875" y1="219.6615" y2="233.2031"/><line style="stroke:#2FA4E7;stroke-width:3.125;" x1="361.9792" x2="404.6875" y1="233.2031" y2="233.2031"/><polygon fill="#2FA4E7" points="372.3958,229.0365,361.9792,233.2031,372.3958,237.3698,368.2292,233.2031" style="stroke:#2FA4E7;stroke-width:1.0416666666666667;"/><text fill="#343A40" font-family="Verdana" font-size="12.5" lengthAdjust="spacing" textLength="112.5" x="373.4375" y="209.4218">&#25968;&#25454;&#28165;&#27927;&#21644;&#29305;&#24449;&#36873;&#25321;</text><polygon fill="#2FA4E7" points="573.4375,268.5872,583.8542,272.7539,573.4375,276.9206,577.6042,272.7539" style="stroke:#2FA4E7;stroke-width:1.0416666666666667;"/><line style="stroke:#2FA4E7;stroke-width:3.125;" x1="360.9375" x2="579.6875" y1="272.7539" y2="272.7539"/><text fill="#343A40" font-family="Verdana" font-size="12.5" lengthAdjust="spacing" textLength="112.5" x="373.4375" y="262.5142">&#36865;&#20837;&#39044;&#22788;&#29702;&#21518;&#30340;&#25968;&#25454;</text><line style="stroke:#2FA4E7;stroke-width:3.125;" x1="585.9375" x2="629.6875" y1="312.3047" y2="312.3047"/><line style="stroke:#2FA4E7;stroke-width:3.125;" x1="629.6875" x2="629.6875" y1="312.3047" y2="325.8464"/><line style="stroke:#2FA4E7;stroke-width:3.125;" x1="586.9792" x2="629.6875" y1="325.8464" y2="325.8464"/><polygon fill="#2FA4E7" points="597.3958,321.6797,586.9792,325.8464,597.3958,330.013,593.2292,325.8464" style="stroke:#2FA4E7;stroke-width:1.0416666666666667;"/><text fill="#343A40" font-family="Verdana" font-size="12.5" lengthAdjust="spacing" textLength="100" x="598.4375" y="302.065">&#35757;&#32451;&#25925;&#38556;&#35786;&#26029;&#27169;&#22411;</text><line style="stroke:#2FA4E7;stroke-width:3.125;" x1="585.9375" x2="629.6875" y1="365.3971" y2="365.3971"/><line style="stroke:#2FA4E7;stroke-width:3.125;" x1="629.6875" x2="629.6875" y1="365.3971" y2="378.9388"/><line style="stroke:#2FA4E7;stroke-width:3.125;" x1="586.9792" x2="629.6875" y1="378.9388" y2="378.9388"/><polygon fill="#2FA4E7" points="597.3958,374.7721,586.9792,378.9388,597.3958,383.1055,593.2292,378.9388" style="stroke:#2FA4E7;stroke-width:1.0416666666666667;"/><text fill="#343A40" font-family="Verdana" font-size="12.5" lengthAdjust="spacing" textLength="50" x="598.4375" y="355.1575">&#20445;&#23384;&#27169;&#22411;</text><polygon fill="#2FA4E7" points="159.375,414.3229,169.7917,418.4896,159.375,422.6563,163.5417,418.4896" style="stroke:#2FA4E7;stroke-width:1.0416666666666667;"/><line style="stroke:#2FA4E7;stroke-width:3.125;" x1="36.4583" x2="165.625" y1="418.4896" y2="418.4896"/><text fill="#343A40" font-family="Verdana" font-size="12.5" lengthAdjust="spacing" textLength="100" x="48.9583" y="408.2499">&#19978;&#20256;&#26032;&#30340;&#25925;&#38556;&#25968;&#25454;</text><polygon fill="#2FA4E7" points="792.1875,453.8737,802.6042,458.0404,792.1875,462.207,796.3542,458.0404" style="stroke:#2FA4E7;stroke-width:1.0416666666666667;"/><line style="stroke:#2FA4E7;stroke-width:3.125;" x1="171.875" x2="798.4375" y1="458.0404" y2="458.0404"/><text fill="#343A40" font-family="Verdana" font-size="12.5" lengthAdjust="spacing" textLength="100" x="184.375" y="447.8007">&#25509;&#25910;&#26032;&#30340;&#25925;&#38556;&#25968;&#25454;</text><line style="stroke:#2FA4E7;stroke-width:3.125;" x1="804.6875" x2="848.4375" y1="497.5911" y2="497.5911"/><line style="stroke:#2FA4E7;stroke-width:3.125;" x1="848.4375" x2="848.4375" y1="497.5911" y2="511.1328"/><line style="stroke:#2FA4E7;stroke-width:3.125;" x1="805.7292" x2="848.4375" y1="511.1328" y2="511.1328"/><polygon fill="#2FA4E7" points="816.1458,506.9661,805.7292,511.1328,816.1458,515.2995,811.9792,511.1328" style="stroke:#2FA4E7;stroke-width:1.0416666666666667;"/><text fill="#343A40" font-family="Verdana" font-size="12.5" lengthAdjust="spacing" textLength="100" x="817.1875" y="487.3515">&#20351;&#29992;&#27169;&#22411;&#35786;&#26029;&#25968;&#25454;</text><polygon fill="#2FA4E7" points="183.3333,546.5169,172.9167,550.6836,183.3333,554.8503,179.1667,550.6836" style="stroke:#2FA4E7;stroke-width:1.0416666666666667;"/><line style="stroke:#2FA4E7;stroke-width:3.125;" x1="177.0833" x2="803.6458" y1="550.6836" y2="550.6836"/><text fill="#343A40" font-family="Verdana" font-size="12.5" lengthAdjust="spacing" textLength="75" x="194.7917" y="540.4439">&#36865;&#20986;&#35786;&#26029;&#32467;&#26524;</text><polygon fill="#2FA4E7" points="47.9167,586.0677,37.5,590.2344,47.9167,594.401,43.75,590.2344" style="stroke:#2FA4E7;stroke-width:1.0416666666666667;"/><line style="stroke:#2FA4E7;stroke-width:3.125;" x1="41.6667" x2="170.8333" y1="590.2344" y2="590.2344"/><text fill="#343A40" font-family="Verdana" font-size="12.5" lengthAdjust="spacing" textLength="75" x="59.375" y="579.9947">&#23637;&#31034;&#35786;&#26029;&#32467;&#26524;</text><polygon fill="#2FA4E7" points="159.375,625.6185,169.7917,629.7852,159.375,633.9518,163.5417,629.7852" style="stroke:#2FA4E7;stroke-width:1.0416666666666667;"/><line style="stroke:#2FA4E7;stroke-width:3.125;" x1="36.4583" x2="165.625" y1="629.7852" y2="629.7852"/><text fill="#343A40" font-family="Verdana" font-size="12.5" lengthAdjust="spacing" textLength="100" x="48.9583" y="619.5455">&#36873;&#25321;&#19979;&#36733;&#35786;&#26029;&#32467;&#26524;</text><!--SRC=[RT5FJeD050RmFQSO3-05NBZY05r0M2CXiOdM1d7VHb1Rj3RQFzgqM4shTK6jqIYqrbw6DmEt41WeXRY4xpUFxmrRwhvyA2D9LauEPB74Y99wf23Ick2BRoGU8vufYufQb8fbiQGYGTu3vmEkPs4aP2BSdk6hgV-amKWZpJCyUOH1DsI5BElFuNu2rhFh34DZ6jxK8elJr7EviRhVwtjlTTonKiCoFDhUHGBQGQvTTt-6q7Y05uDYseGHGb4816wCSUih4L5MM6VHCxPr_Dc5cqjIS-2twbTgs7YbY0kGNwc2Fbwl1iq6wMdn92v1yHgvkgQH2dSr0EikVflhZpkpQ6Q-Fxlk_uzW4-4kL-4VezT9lxqXX7Y5ypdDoE8MctqwdmyoU6-JKJRZqtFXLRYsuIsNc-8F]--></g></svg>