<?xml version="1.0" encoding="us-ascii" standalone="no"?><svg xmlns="http://www.w3.org/2000/svg" xmlns:xlink="http://www.w3.org/1999/xlink" contentStyleType="text/css" height="480px" preserveAspectRatio="none" style="width:377px;height:480px;background:#FFFFFF;" version="1.1" viewBox="0 0 377 480" width="377px" zoomAndPan="magnify"><defs/><g><!--cluster SystemHealer--><g id="cluster_SystemHealer"><path d="M8.5,6 L118.5,6 A3.75,3.75 0 0 1 121,8.5 L128,28.2969 L322.5,28.2969 A2.5,2.5 0 0 1 325,30.7969 L325,470.69 A2.5,2.5 0 0 1 322.5,473.19 L8.5,473.19 A2.5,2.5 0 0 1 6,470.69 L6,8.5 A2.5,2.5 0 0 1 8.5,6 " fill="none" style="stroke:#000000;stroke-width:1.5;"/><line style="stroke:#000000;stroke-width:1.5;" x1="6" x2="128" y1="28.2969" y2="28.2969"/><text fill="#000000" font-family="sans-serif" font-size="14" font-weight="bold" lengthAdjust="spacing" textLength="109" x="10" y="20.9951">SystemHealer</text></g><!--entity ???????--><g id="elem_&#25968;&#25454;&#39044;&#22788;&#29702;&#27169;&#22359;"><rect fill="#F1F1F1" height="46.2969" rx="2.5" ry="2.5" style="stroke:#181818;stroke-width:0.5;" width="138" x="106" y="41"/><rect fill="#F1F1F1" height="10" style="stroke:#181818;stroke-width:0.5;" width="15" x="224" y="46"/><rect fill="#F1F1F1" height="2" style="stroke:#181818;stroke-width:0.5;" width="4" x="222" y="48"/><rect fill="#F1F1F1" height="2" style="stroke:#181818;stroke-width:0.5;" width="4" x="222" y="52"/><text fill="#000000" font-family="sans-serif" font-size="14" lengthAdjust="spacing" textLength="98" x="121" y="73.9951">&#25968;&#25454;&#39044;&#22788;&#29702;&#27169;&#22359;</text></g><!--entity ??????????--><g id="elem_&#26426;&#22120;&#23398;&#20064;&#27169;&#22411;&#35757;&#32451;&#27169;&#22359;"><rect fill="#F1F1F1" height="46.2969" rx="2.5" ry="2.5" style="stroke:#181818;stroke-width:0.5;" width="180" x="22" y="164.3"/><rect fill="#F1F1F1" height="10" style="stroke:#181818;stroke-width:0.5;" width="15" x="182" y="169.3"/><rect fill="#F1F1F1" height="2" style="stroke:#181818;stroke-width:0.5;" width="4" x="180" y="171.3"/><rect fill="#F1F1F1" height="2" style="stroke:#181818;stroke-width:0.5;" width="4" x="180" y="175.3"/><text fill="#000000" font-family="sans-serif" font-size="14" lengthAdjust="spacing" textLength="140" x="37" y="197.2951">&#26426;&#22120;&#23398;&#20064;&#27169;&#22411;&#35757;&#32451;&#27169;&#22359;</text></g><!--entity ??????--><g id="elem_&#25925;&#38556;&#35786;&#26029;&#27169;&#22359;"><rect fill="#F1F1F1" height="46.2969" rx="2.5" ry="2.5" style="stroke:#181818;stroke-width:0.5;" width="124" x="22" y="287.6"/><rect fill="#F1F1F1" height="10" style="stroke:#181818;stroke-width:0.5;" width="15" x="126" y="292.6"/><rect fill="#F1F1F1" height="2" style="stroke:#181818;stroke-width:0.5;" width="4" x="124" y="294.6"/><rect fill="#F1F1F1" height="2" style="stroke:#181818;stroke-width:0.5;" width="4" x="124" y="298.6"/><text fill="#000000" font-family="sans-serif" font-size="14" lengthAdjust="spacing" textLength="84" x="37" y="320.5951">&#25925;&#38556;&#35786;&#26029;&#27169;&#22359;</text></g><!--entity Web??--><g id="elem_Web&#24179;&#21488;"><rect fill="#F1F1F1" height="46.2969" rx="2.5" ry="2.5" style="stroke:#181818;stroke-width:0.5;" width="99" x="127.5" y="410.89"/><rect fill="#F1F1F1" height="10" style="stroke:#181818;stroke-width:0.5;" width="15" x="206.5" y="415.89"/><rect fill="#F1F1F1" height="2" style="stroke:#181818;stroke-width:0.5;" width="4" x="204.5" y="417.89"/><rect fill="#F1F1F1" height="2" style="stroke:#181818;stroke-width:0.5;" width="4" x="204.5" y="421.89"/><text fill="#000000" font-family="sans-serif" font-size="14" lengthAdjust="spacing" textLength="59" x="142.5" y="443.8851">Web&#24179;&#21488;</text></g><!--link ??????? to ??????????--><g id="link_&#25968;&#25454;&#39044;&#22788;&#29702;&#27169;&#22359;_&#26426;&#22120;&#23398;&#20064;&#27169;&#22411;&#35757;&#32451;&#27169;&#22359;"><path d="M135.56,87.69 C125.34,95.63 115.63,105.56 110,117.3 C104.01,129.79 103.82,145.06 105.43,158.07 " fill="none" id="&#25968;&#25454;&#39044;&#22788;&#29702;&#27169;&#22359;-to-&#26426;&#22120;&#23398;&#20064;&#27169;&#22411;&#35757;&#32451;&#27169;&#22359;" style="stroke:#181818;stroke-width:1.0;"/><polygon fill="#181818" points="106.27,162.87,108.9148,153.3829,105.5409,157.9234,101.0003,154.5495,106.27,162.87" style="stroke:#181818;stroke-width:1.0;"/><text fill="#000000" font-family="sans-serif" font-size="13" lengthAdjust="spacing" textLength="117" x="111" y="130.3669">&#36755;&#20837;&#39044;&#22788;&#29702;&#21518;&#30340;&#25968;&#25454;</text></g><!--link ?????????? to ??????--><g id="link_&#26426;&#22120;&#23398;&#20064;&#27169;&#22411;&#35757;&#32451;&#27169;&#22359;_&#25925;&#38556;&#35786;&#26029;&#27169;&#22359;"><path d="M77.64,210.96 C68.18,219.07 59.13,229.09 54,240.6 C47.89,254.31 53.28,269.63 61.1,282.35 " fill="none" id="&#26426;&#22120;&#23398;&#20064;&#27169;&#22411;&#35757;&#32451;&#27169;&#22359;-to-&#25925;&#38556;&#35786;&#26029;&#27169;&#22359;" style="stroke:#181818;stroke-width:1.0;"/><polygon fill="#181818" points="64.32,286.27,62.7328,276.5499,61.5795,282.0879,56.0415,280.9346,64.32,286.27" style="stroke:#181818;stroke-width:1.0;"/><text fill="#000000" font-family="sans-serif" font-size="13" lengthAdjust="spacing" textLength="104" x="55" y="253.6669">&#25552;&#20379;&#35757;&#32451;&#22909;&#30340;&#27169;&#22411;</text></g><!--link Web?? to ???????--><g id="link_Web&#24179;&#21488;_&#25968;&#25454;&#39044;&#22788;&#29702;&#27169;&#22359;"><path d="M226.6,414.26 C240.92,406.25 254.86,395.35 263,380.89 C266.71,374.31 263.46,371.43 263,363.89 C256.32,253.69 283.96,215.24 233,117.3 C227.9,107.49 220.15,98.64 211.96,91.12 " fill="none" id="Web&#24179;&#21488;-to-&#25968;&#25454;&#39044;&#22788;&#29702;&#27169;&#22359;" style="stroke:#181818;stroke-width:1.0;"/><polygon fill="#181818" points="208.92,88.54,213.0254,97.4924,212.6704,91.8467,218.3161,91.4917,208.92,88.54" style="stroke:#181818;stroke-width:1.0;"/><text fill="#000000" font-family="sans-serif" font-size="13" lengthAdjust="spacing" textLength="104" x="265" y="253.6669">&#25552;&#20379;&#21407;&#22987;&#25925;&#38556;&#25968;&#25454;</text></g><!--link Web?? to ??????--><g id="link_Web&#24179;&#21488;_&#25925;&#38556;&#35786;&#26029;&#27169;&#22359;"><path d="M166.41,410.54 C159.3,396.49 149.21,378.39 138,363.89 C131.01,354.86 122.48,345.89 114.28,338.01 " fill="none" id="Web&#24179;&#21488;-to-&#25925;&#38556;&#35786;&#26029;&#27169;&#22359;" style="stroke:#181818;stroke-width:1.0;"/><polygon fill="#181818" points="111.29,335.24,115.0656,344.3364,114.9171,338.6815,120.572,338.533,111.29,335.24" style="stroke:#181818;stroke-width:1.0;"/><text fill="#000000" font-family="sans-serif" font-size="13" lengthAdjust="spacing" textLength="104" x="150" y="376.9569">&#25552;&#20379;&#26032;&#30340;&#25925;&#38556;&#25968;&#25454;</text></g><!--link ?????? to Web??--><g id="link_&#25925;&#38556;&#35786;&#26029;&#27169;&#22359;_Web&#24179;&#21488;"><path d="M60.88,334.38 C49.51,348.3 40.17,366.23 50,380.89 C66.05,404.83 95.26,417.79 121.63,424.8 " fill="none" id="&#25925;&#38556;&#35786;&#26029;&#27169;&#22359;-to-Web&#24179;&#21488;" style="stroke:#181818;stroke-width:1.0;"/><polygon fill="#181818" points="126.21,426.21,118.4699,420.1197,121.3635,424.9805,116.5027,427.8741,126.21,426.21" style="stroke:#181818;stroke-width:1.0;"/><text fill="#000000" font-family="sans-serif" font-size="13" lengthAdjust="spacing" textLength="78" x="51" y="376.9569">&#36820;&#22238;&#35786;&#26029;&#32467;&#26524;</text></g><!--SRC=[AqXCpavCJrLG2guiBadDzKXDp4ajKbAevb9GY7usTSEptdKl5xKyNTBoV4BRinKBdywT7WkMcRFhwSmLJzSkUx9p0KXuNlUBTMkVxsv6LZArzUMiEI_MTpsRjXP9E3mrwUdEpK_xDyHorN9nuR12GLVNZg0b2bOAB_PDVjgw5AxxwOI-vxDQ84Po4TGEiGFJbK1pd_LFUB9lDaJvqwLxGOQ23U12SZvCFrRtmunusZV_wV9kY2KmTs4QWTi9pwPj0Fi8MJyszM23a0m61it-AKzdpuEeUhvxyhDvSxW0]--></g></svg>